<svg xmlns="http://www.w3.org/2000/svg" viewBox="0 0 381.01 319.57"><defs><style>.cls-1{fill:#d60067;}.cls-2{fill:#fff;}</style></defs><g id="Layer_2" data-name="Layer 2"><g id="Layer_1-2" data-name="Layer 1"><path class="cls-1" d="M249.7,33.29C224.36,39.81,213.28,52.55,211.35,55c-.56.72-2.91-3.29-3.58-4-2.65-2.85-5.22-5.81-8-8.56a25.38,25.38,0,0,0-4.39-4c-1.28-.85-2.7-1.47-4-2.22-5.66-3.21-9.6-5.49-15.83-7.39-2.76-.84-5.88-2.53-8.5-3-6.39-1.1-13.26-.3-19.68.87a41.07,41.07,0,0,0-5.25,1.3c-1.49.52-3.17.15-4.52,1-2.32,1.43-3.34,2.75-5.83,3.78-2.09.86-4.6,3.82-6.61,4.83a31.22,31.22,0,0,0-6.5,3.9c-2.63,2.25-5.73,3.95-8.4,6.18a42.78,42.78,0,0,0-5.1,4.79c-1.37,1.6-2,3.74-3.19,5.54C98,64,94,70.18,91.64,77.05a67.84,67.84,0,0,0-2.73,12.69,18.19,18.19,0,0,0,.34,6.31c.35,2,1,5.31,1.37,7.31a41.57,41.57,0,0,0,1.61,6.53c1.82,4.45,3.25,7.82,6.34,11.6,1.81,2.21,4,4.09,5.56,6.5,2.28,3.58,3.71,7.6,6.74,10.63,2.45,2.45,4.46,5.34,6.82,7.84,3.18,3.38,6.46,6.71,9.84,9.85s7.21,5.58,10.29,8.82a61.37,61.37,0,0,0,15.68,11.76c3.81,2,7.47,5.26,11.38,6.87,2.59,1.07,5.52.87,8.17,1.88a68.47,68.47,0,0,1,18.15,9.83c4.21,3.36,6.66,8.13,9.39,12.65,6.47,10.71,16.41,16.51,18.95,29.62,2,10.16,2.79,20.48,4,30.74.22,1.78,0,5,1.41,6.37s2.84.6,3.58-1c1.17-2.55.54-7,.6-9.8,0-3.5-5.52-27.58.27-27,2.63.29,4,6,4.76,8a110.55,110.55,0,0,1,4.41,14c2.45,9.72,2.25,19.63.65,29.52-.5,3.16-1.72,6-2.44,9.12-1.3,5.6-2.46,11.23-3.2,16.92a6.74,6.74,0,0,0,.16,3.43,2.36,2.36,0,0,0,2.76,1.51c3.5-11.47,7.71-22.16,8.83-34.19.85-9.41,1.12-19.09-1-28.36-2-8.77-6.31-17.9-11.13-25.47-1.63-2.56-3.47-4.92-5.3-7.32-1.34-1.75-3.47-3.29-4.45-5.25-2.61-5.21-1.2-10.09,1.41-14.89.83-1.52,1.89-2.9,2.82-4.36a55.17,55.17,0,0,0,3.59-7.12,41.85,41.85,0,0,1,3.16-6.57c1.22-1.79,2.94-3.2,4.1-5,2.22-3.52,4.28-7.14,6.43-10.7,1.85-3.06,2.89-6.45,5.39-9,4.83-4.89,8.06-11.12,12.44-16.43,1.11-1.35,2.64-2.22,3.72-3.46.75-.86,1.33-2,2.06-2.87,1.28-1.61,2.84-3.06,4-4.73s2.82-2.32,4.1-3.86,2.56-3.33,4-4.82c6-6.08,13.08-11.22,17.69-18.57a133.38,133.38,0,0,0,9.11-17.1,55.77,55.77,0,0,0,3.68-13.47,43.35,43.35,0,0,0,.49-12.74,58.78,58.78,0,0,0-4-14.41c-1.67-3.85-5.17-6.5-8-9.55a23,23,0,0,0-17.11-7.08c-3.22.07-6.41-.15-9.64,0-2.81.16-6,.93-8.74.2Zm43.05,47.63C295.2,71.17,295,61.27,294,50.84c7,5.24,11.46,12.64,6.46,20.52-2.15,3.43-4.06,7-6.12,10.49-.25.44-.64.78-1.32,1.67A7,7,0,0,1,292.75,80.92ZM213.82,65.34a1.28,1.28,0,0,1-.34.59A2,2,0,0,0,213.82,65.34ZM165.4,178.78c-3.78.15-9.48-4.54-12.57-6.44A148.3,148.3,0,0,1,123.76,149a101.83,101.83,0,0,1-8.72-9.51c-1.26-1.68-3.18-3.48-.12-3.63,4.58-.21,9.06,6.06,12.11,8.8q6.74,6,13.84,11.68c7.69,6.1,15.75,11.55,23.84,17.09C166.52,174.63,169.42,178.62,165.4,178.78Zm-50.5-49.11s.15-.1.15-.1h0Zm142.75,2.21c-2.67,4-5.81,8.25-6.59,9.47-6.13,9.6-12.64,19-17.74,29.18-4.12,8.18-8.13,16.41-12.2,24.6-1.42.19-1.47-.74-1.27-1.67a125.55,125.55,0,0,1,3-12.64,122.15,122.15,0,0,1,5.59-14.21c3.23-6.81,7-13.47,12.1-19,5.73-6.17,10.09-13.37,15.63-19.65a24,24,0,0,1,5.44-4.41C262.28,124.45,260.17,128.09,257.65,131.88Zm.85-12c-4.7,5.39-9,11.12-13.62,16.61-1.91,2.3-4,4.36-5.93,6.61-1.37,1.67-2.54,3.48-3.82,5.24a88.08,88.08,0,0,0-5.39,7.5,136.68,136.68,0,0,0-7.44,14.06c-1.67,3.67-2.6,7.64-3.78,11.51-1.52,5-2.89,10-4.36,15-1,3.33-1.91,6.66-2.89,10.09-.93-.34-1.66-.59-2.4-.83,1.47,1.32,2.94,2.59,4.46,3.92-1.47-1.28-3-2.6-4.46-3.92-.83-.84-1.62-1.67-2.45-2.5-.68-.79-1.32-1.57-2-2.35-1.66-1.67-3.33-3.29-5-4.95-.79-.59-1.57-1.23-2.41-1.81-4.06-3.73-8.08-7.5-12.2-11.18-2.05-1.86-4.21-3.67-6.41-5.38-2.64-2.07-5.33-4.06-8-6.06a20.48,20.48,0,0,1-2.83-2.51c-1.56-1.72-7.25-5.19-8.25-6-2.56-2-5.54-3.78-7.68-6.23-4.22-4.82-10-8-15.3-11.66a98.49,98.49,0,0,1-10.86-8.21c-3-2.74-5.16-6.19-8-9a72.08,72.08,0,0,1-14.71-21.64c-1.86-4.07-3.24-8-2.75-12.35a51.69,51.69,0,0,1,2.21-10.14c1.47-4.46,3.33-8.82,5.19-13.13C109.9,64.81,113,59.38,117.54,55c5.79-5.59,11.62-11,17.69-16.32,1.42-1.22,3.68-1.47,5.59-2.11a16.87,16.87,0,0,1,7.79-1.17c1,.15,2,.05,3.08.19,4.95.79,9.95,1.33,14.75,2.55,3.38.88,6.52,2.75,9.75,4.12,7,2.85,13.22,6.2,16.24,13.58A33.41,33.41,0,0,1,194,61.18a63.57,63.57,0,0,1,1.35,16.51,47.76,47.76,0,0,0-.13,6.87c.24,2.53,1.25,7.33,4.72,6.3,3-.9,3.79-9.94,4.65-13.1.33-1.19,1.28-3.83,1.58-5,.48-2,1.44-2.51,1.93-4.49.19-.8.24-2.27,1.15-2.67,1.27-.55,2.25,1.58,2.37,2.8a6,6,0,0,1-.42,2.43l-.86,2.74c-.23.71-.45,1.42-.65,2.14a25.86,25.86,0,0,0-.85,5.47c.44.18.9-.2,1.22-.55,3.54-3.83,5.73-9,9-13.14a100.44,100.44,0,0,1,11.39-11.94,57.76,57.76,0,0,1,18-11.32,24.07,24.07,0,0,1,5-1.19l11.93-1.61a40.21,40.21,0,0,1,8.83-.53,11.76,11.76,0,0,1,7,3.87c4.15,4.34,6,10.35,7.49,16.15a39.34,39.34,0,0,1,1,4.65c.51,3.67,0,7.4-.5,11.08-.44,3.21-.92,6.52-2.56,9.31-.54.93-1.21,1.78-1.79,2.69-1.27,2-3.42,5.12-4.85,7-1.95,2.55-3.92,5.08-6,7.49C268.94,108.81,263.5,114.15,258.5,119.89Z"></path><path class="cls-2" d="M32.24,67.22c.18-.34.34-.72.49-1l1.86-3.14A7.77,7.77,0,0,1,36,61.23a2.15,2.15,0,0,1,2.26-.58c.41.19.6.57,1,.18s.38-1.59.38-2.18a44.25,44.25,0,0,0-.84-5.91,7.2,7.2,0,0,1,0-3c.65-2.32,5.51-2.63,7.22-1.48.15.1.3.15.44.24.49.25,1,.54,1.52.79,1.59,1.58-.12,6.51-.65,8.61a45.26,45.26,0,0,1-4.09,10.41A89.11,89.11,0,0,1,37,77.86C35.82,79.5,33.91,81,33.29,83c-1.28,4,2,1.64,3.83.73s4.26.39,5.19,2.27c1.47,3-.43,8.65,4.58,4.61,1.28-1,1.23-1.87,1.94-3.11s.88-1,1.84-1.91c1.85-1.69,2.49-3.59,3.54-5.85q3.27-7.08,6.55-14.17c2.25-4.85,3.6-12.66,10.56-9.94A54.54,54.54,0,0,0,77.4,58a19.94,19.94,0,0,0,4.51,0h.14l.15-.1c1-.69,4.09-1.2,5.26-2.29a1.17,1.17,0,0,0,.44-1.14c-.23-1-2.49-2-3.29-2.46a59.55,59.55,0,0,0-8.69-3.83c-3.39-1.21-5.43-2.74-4.26-6.68.51-1.72,1.94-3.57,2.77-5.18Q77.72,29.87,81,23.41a.5.5,0,0,0,.19-.44c1.08-2.45,2.21-4.95,3.28-7.4,2.26-3.64,6-7.79.68-10.52A84.82,84.82,0,0,0,75,.69c-5.8-2-5.42.67-6.48,5.32a88.2,88.2,0,0,1-3,10.17,88.87,88.87,0,0,1-5.64,12.6c-1,1.89-2.12,3.7-3,5.64-.67,1.47-1.14,3.26-3.33,2.82S49.16,34.12,49.24,32c.15-3.9,2.25-8.32,3.23-12.11L55.25,9.23A45.79,45.79,0,0,1,43.13,8.08c-1.75-.41-4.15-2.27-6-1.58-2.23.83-3.3,5.69-3.94,7.7C32,17.81,31.8,22.54,29,25.4c-1.48,1.52-3.08,1.52-4.93,2.13-2.63.87-4.41,1.78-7.33,1.14a26.89,26.89,0,0,1-7.5-3.32c-1.14-.65-2.2-1.44-3.36-2.06a4.32,4.32,0,0,0-1.66-.66c-.67,0-.61.65-.59,1.25s0,1.11-.47,1.37a1.35,1.35,0,0,1-1.26-.07A2.58,2.58,0,0,0,.7,24.81c-.44,0-.86.52-.64.9a11.73,11.73,0,0,1,2.25,1.65,1.8,1.8,0,0,1,.74,1.46,1.51,1.51,0,0,1-.69.91s-.82.53-.61.64l2.11,1.07c.24.15.59.1.83.25,1.86,1.52,3.63,3.23,5.59,4.6,1.76,1.23,3.18,2.45,2.35,4.85a1,1,0,0,0-.1.74c.39.83.83,1.67,1.27,2.5a6.66,6.66,0,0,0,2-1.18c.93-1.11.77-2.91,2.2-3.51s4.15.82,4.34,2.48c.14,1.19-.69,2.24-1.21,3.32-1.57,3.25,2.48,3.8,3.82,6a19.28,19.28,0,0,1,1.68,4.16c.06.18.11.35.16.53.75,2.71,1.31,5.48,2.25,8.14a9,9,0,0,0,1.81,3.52C31.45,68.46,31.89,67.89,32.24,67.22ZM42.81,84.36c.24,0,.44,0,.68,0A3.35,3.35,0,0,0,42.81,84.36ZM47,87a3.77,3.77,0,0,0-3.48-2.69A3.77,3.77,0,0,1,47,87Zm1.72-2.4a1.8,1.8,0,0,1,1-.44A1.8,1.8,0,0,0,48.74,84.6Z"></path><path class="cls-2" d="M351.23,197.69l.74-1.43c1-2.1,2.06-4.26,3-6.36a9.35,9.35,0,0,1,.44-.84c.24-.39.49-.73.73-1.12s.44-.69.69-1c.49-.4.93-.79,1.42-1.13h2.6l3.33.73c.29.15.59.3.93.44.83.35,1.71.69,2.55,1l3.67,1a7.5,7.5,0,0,0,7.65.44.55.55,0,0,0,.39-.14c2.2-2.21,2.1-3.92-.1-4.9a7.9,7.9,0,0,0-1.62-.44l-3-1.47c-.24-.15-.54-.35-.78-.49-.49-.4-.93-1-1.47-1.13-3.24-.59-8.81.46-10.39-3.21s1.78-8,3-11.34c1.09-3,2.27-5.85,3.46-8.76a38,38,0,0,0,2.37-6.35c.39-1.88.4-3.66,1.31-5.46.59-1.19,1-2.81,0-3.7-.79-.71-2-.51-3.07-.42-5,.43-8.54-4.09-12.46.66a41,41,0,0,0-5.8,10.4c-1.84,4.42-3.35,9-5.64,13.21-1.1,2-2.5,4.71-4.36,6.16a2.38,2.38,0,0,1-2.35.73c-.25,0-2.76-.71-2.61-1q12.61-26.61,24.39-53.6a2.76,2.76,0,0,0,.33-1.47c-.35-2.28-9.22,1.92-10.62,2.38a22.22,22.22,0,0,1-6.9,1.46c-1.55,0-3.3-.87-4.77-.11-2.11,1.08-2.63,4.66-3.63,6.58l-6.31,12.08-8.11,15.56c-1.39,2.67-2.52,8-5.85,9-2.19.64-4.85-1.28-6.84-2.12l-8.05-3.42c-2.87-1.22-5.58-1.61-8.35-3a48.61,48.61,0,0,0-8.14-3.28c-4.79-1.46-9.37-3.49-14.09-5.15-2.25,2.4-2.3,2.65.25,4.46a21.79,21.79,0,0,0,4.6,2.65c4.95,2,10,3.67,14.9,5.63,4.63,1.86,9.12,4.31,13.83,5.94,3.67,1.28,7.64.58,8.78,5.63.69,3.08-.31,6.27-1.3,9.26-2.41,7.3-4.59,14.74-7.3,21.94-1.14,3-1.85,4.58,1.43,6.17a39.17,39.17,0,0,0,10.43,3.1,12,12,0,0,0,4.92.07c3.62-.89,3-2.89,3.19-5.76a52.08,52.08,0,0,1,2-10c1.58-5.68,3.94-12.08,7.89-16.58,1.61-1.83,3.55-3,5.54-1,2.23,2.28,1.13,5.71.17,8.29l-4.76,12.88a3.64,3.64,0,0,0-.33,2.09c.17.69,1,1.28,1.61,1,.44-.22.62-.74.83-1.18,1.17-2.45,3.85-2.89,6.26-2.47C345.5,199.32,348,199.93,351.23,197.69Zm-38.41,7.54Zm.1-.1Zm25.53-16.66h0a2.34,2.34,0,0,0,.24-.09A2.34,2.34,0,0,1,338.45,188.47Zm22.24-8.62,1.23.29h0ZM371,183.43a1.49,1.49,0,0,0-.24-1.28h0A1.49,1.49,0,0,1,371,183.43Zm4.16.14c-.34.15-.68.35-1,.49a7.9,7.9,0,0,0,1-.49Zm1.08,2.6a2.13,2.13,0,0,0,1.42-1.13h0A2,2,0,0,1,376.22,186.17Z"></path><path class="cls-2" d="M237.27,127.52c-1.81-1.22-3.77-2.2-5.68-3.23-3.68-2-7.4-3.87-11.12-5.83a156.85,156.85,0,0,0-21.56-9.18c-7.88-2.77-15.76-5.55-23.46-8.79-10.61-4.46-20.92-9.83-31.34-14.74l-14.6-6.87c-4.64-2.18-8.14-2.68-13.26-3a26.17,26.17,0,0,0-2.79.2,27.32,27.32,0,0,0,2.06,2.69c.34.35,1,.35,1.57.54,2.94,1.13,6,2.11,8.81,3.43,1.13.54,1.92,1.86,2.9,2.75,1.47,1.37,2.79,3,4.45,3.92,1.42.78,3.24.78,4.9,1.07l.64.15-.64-.15c0,.64-.05,1.33-.05,2l-7.1-.88c-.1.25-.15.54-.24.79.34.49.58,1.17,1.07,1.46a78.52,78.52,0,0,0,8.77,6,110.94,110.94,0,0,0,12.55,5.29c5.29,2,10.78,3.48,16.07,5.54,5.68,2.21,11.17,4.9,16.8,7.15,4.95,2,10.19,3.24,14.9,5.69,5.24,2.69,11,2.94,16.46,4.55,1.91.57,2.43-.34,3.81-1.3,1.71-1.19,2-.87,3.91-.5a37.24,37.24,0,0,1,6.64,1.72c2.66,1,3.55,2.25,6.36,1.75C237.76,128.94,237.76,127.87,237.27,127.52Z"></path></g></g></svg>